<svg xmlns="http://www.w3.org/2000/svg" viewBox="0 0 20.32 24"><defs><style>.cls-1{fill:#eeeeef;}</style></defs><g id="圖層_2" data-name="圖層 2"><g id="圖層_1-2" data-name="圖層 1"><circle class="cls-1" cx="10.69" cy="7.82" r="3"/><path class="cls-1" d="M14.36,15.73C16.14,12.91,18,9.41,18,7.34a7.34,7.34,0,0,0-14.68,0c0,2.07,1.89,5.57,3.68,8.39H4.38L0,24H16l4.37-8.27ZM4.7,7.34a6,6,0,0,1,12,0c0,1.84-2,5.45-3.95,8.39-.3.47-.61.93-.89,1.34-.41.63-.82,1.18-1.16,1.66-.34-.48-.75-1-1.16-1.66-.29-.41-.59-.87-.9-1.34C6.73,12.8,4.7,9.2,4.7,7.34ZM15.14,22.66H2.23l2.95-5.59H7.89c1.2,1.77,2.16,3.05,2.27,3.2l.54.71.53-.71c.09-.15,1.07-1.43,2.25-3.2h4.61Z"/></g></g></svg>