<svg xmlns="http://www.w3.org/2000/svg" viewBox="0 0 24 17.3"><defs><style>.cls-1{fill:#eeeeef;}</style></defs><g id="圖層_2" data-name="圖層 2"><g id="圖層_1-2" data-name="圖層 1"><path class="cls-1" d="M23.51,17.3H3.86a.49.49,0,0,1-.49-.49V2.22a.49.49,0,0,1,.49-.49H23.51a.49.49,0,0,1,.49.49V16.81A.49.49,0,0,1,23.51,17.3Zm-19.16-1H23V2.71H4.35Z"/><path class="cls-1" d="M3.86,16.81V2.22H20L19.82.75a.86.86,0,0,0-1-.74L.75,2.48a.87.87,0,0,0-.74,1l1.78,13a.87.87,0,0,0,1,.74l2.83-.39Z"/><path class="cls-1" d="M13.68,11.5a.49.49,0,0,1-.32-.12L3.53,2.59l.66-.74,9.49,8.5,9.5-8.5.66.74L14,11.38A.5.5,0,0,1,13.68,11.5Z"/></g></g></svg>