<svg xmlns="http://www.w3.org/2000/svg" viewBox="0 0 24 24"><defs><style>.cls-1{fill:#eeeeef;}</style></defs><g id="圖層_2" data-name="圖層 2"><g id="圖層_1-2" data-name="圖層 1"><path class="cls-1" d="M8.62,4.75S5.45,6.14,5.72,8.69c.32,3,4.41,8.64,9.46,10.56A4.85,4.85,0,0,0,18.3,16,3.62,3.62,0,0,0,16,13.64c-.4,0-1.23.95-1.75,1.62,0,0-5-5.5-5.28-6.15a5.57,5.57,0,0,0,1.77-1.94A3.13,3.13,0,0,0,8.62,4.75Z"/><path class="cls-1" d="M12,24A12,12,0,1,1,24,12,12,12,0,0,1,12,24ZM12,1A11,11,0,1,0,23,12,11,11,0,0,0,12,1Z"/></g></g></svg>